# xmcd
#
# Track frame offsets:
#	150
#	16210
#	34392
#	52331
#	70842
#	90168
#	108599
#	125451
#	139131
#	152576
#
# Disc length: 2241 seconds
#
# Revision: 0
# Processed by: cddbd v1.5.2PL0 Copyright (c) Steve Scherf et al.
# Submitted via: audiograbber 1.83.01
#
DISCID=8408bf0a
DTITLE=Gene Watson - ...Sings
DYEAR=2003
DGENRE=Country
TTITLE0=New Woman
TTITLE1=Make Sure You Got It All
TTITLE2=When A Man Can't Get A Woman Off His Mind
TTITLE3=What A Difference A Day Made
TTITLE4=Just To Hold Her
TTITLE5=When She Comes Back
TTITLE6=Smithereens
TTITLE7=Flowers
TTITLE8=The Coast Of Texas
TTITLE9=Hold Me
EXTD=
EXTT0=
EXTT1=
EXTT2=
EXTT3=
EXTT4=
EXTT5=
EXTT6=
EXTT7=
EXTT8=
EXTT9=
PLAYORDER=
